<?xml version="1.0" standalone="no"?>
<!DOCTYPE svg PUBLIC "-//W3C//DTD SVG 20010904//EN"
 "http://www.w3.org/TR/2001/REC-SVG-20010904/DTD/svg10.dtd">
<svg version="1.0" xmlns="http://www.w3.org/2000/svg"
 width="800.000000pt" height="745.000000pt" viewBox="0 0 800.000000 745.000000"
 preserveAspectRatio="xMidYMid meet">

<g transform="translate(0.000000,745.000000) scale(0.100000,-0.100000)"
fill="#000000" stroke="none">
<path d="M3667 6457 c-59 -100 -112 -188 -116 -196 -7 -10 -41 14 -142 101
-163 139 -218 183 -222 177 -2 -2 -37 -97 -77 -211 -41 -115 -79 -208 -85
-208 -5 0 -95 47 -200 105 -104 57 -192 101 -196 97 -3 -4 -20 -103 -38 -221
-17 -118 -33 -216 -35 -218 -2 -2 -99 26 -215 63 -117 36 -214 64 -217 61 -3
-3 -1 -103 5 -223 6 -119 9 -219 6 -223 -3 -3 -99 5 -213 17 -114 12 -214 22
-223 22 -14 0 -9 -31 37 -212 29 -117 54 -218 54 -224 0 -7 -35 -13 -91 -17
-63 -4 -97 -11 -109 -22 -12 -11 -20 -13 -25 -6 -10 18 -225 8 -225 -10 0 -5
41 -95 90 -200 50 -106 90 -197 90 -204 0 -7 -12 -15 -27 -19 -16 -3 -111 -30
-213 -60 -127 -38 -184 -59 -182 -68 2 -7 60 -88 129 -180 68 -93 123 -173
121 -179 -2 -5 -89 -54 -193 -108 -104 -54 -191 -103 -193 -109 -1 -5 18 -27
43 -48 l46 -37 207 55 207 54 8 40 c61 293 137 510 256 734 374 707 1031 1183
1831 1327 132 24 169 27 420 27 259 1 284 -1 435 -27 171 -30 187 -35 395
-103 154 -51 433 -185 560 -269 47 -31 89 -57 94 -58 4 -1 20 -13 35 -27 15
-14 71 -61 125 -104 54 -44 153 -137 219 -207 l122 -126 165 44 c91 24 181 48
202 53 33 9 38 16 57 72 12 34 21 66 21 71 0 5 -21 7 -47 4 -27 -3 -130 -8
-231 -11 l-183 -7 5 33 c13 79 47 411 42 415 -3 3 -102 -19 -220 -48 -119 -29
-217 -51 -220 -48 -2 2 -11 94 -21 204 -20 234 -20 233 -27 240 -3 3 -96 -37
-207 -90 -111 -52 -203 -95 -205 -95 -2 0 -6 10 -9 23 -6 30 -118 411 -121
414 -1 2 -75 -50 -163 -116 -88 -65 -171 -126 -185 -135 l-25 -17 -43 83 c-72
139 -163 313 -167 317 -5 6 -53 -41 -65 -64 -6 -11 -7 -17 -3 -12 5 4 19 0 32
-8 13 -9 29 -13 36 -9 7 4 4 -2 -6 -12 -16 -17 -18 -17 -46 -1 -16 9 -31 17
-34 17 -3 0 -54 -54 -113 -120 -59 -66 -110 -120 -113 -120 -3 0 -69 79 -145
175 -77 96 -142 175 -145 175 -3 0 -55 -82 -114 -183z m-632 -477 c-3 -5 -11
-10 -16 -10 -6 0 -7 5 -4 10 3 6 11 10 16 10 6 0 7 -4 4 -10z m3235 -575 c-7
-8 -17 -15 -22 -15 -6 0 -5 7 2 15 7 8 17 15 22 15 6 0 5 -7 -2 -15z m-90 -5
c0 -5 -4 -10 -10 -10 -5 0 -10 5 -10 10 0 6 5 10 10 10 6 0 10 -4 10 -10z
m-40 -50 c0 -5 -2 -10 -4 -10 -3 0 -8 5 -11 10 -3 6 -1 10 4 10 6 0 11 -4 11
-10z m-215 -30 c3 -5 1 -10 -4 -10 -6 0 -11 5 -11 10 0 6 2 10 4 10 3 0 8 -4
11 -10z m195 -10 c0 -5 -4 -10 -10 -10 -5 0 -10 5 -10 10 0 6 5 10 10 10 6 0
10 -4 10 -10z m-135 -70 c-3 -5 -12 -7 -20 -3 -21 7 -19 13 6 13 11 0 18 -4
14 -10z m-4415 -330 c0 -5 -2 -10 -4 -10 -3 0 -8 5 -11 10 -3 6 -1 10 4 10 6
0 11 -4 11 -10z m90 -74 c0 -3 -4 -8 -10 -11 -5 -3 -10 -1 -10 4 0 6 5 11 10
11 6 0 10 -2 10 -4z m-17 -56 c-3 -11 -10 -23 -16 -27 -7 -4 -8 0 -4 11 4 10
7 22 7 27 0 5 4 9 9 9 5 0 7 -9 4 -20z"/>
<path d="M3768 6001 c-113 -12 -145 -20 -152 -36 -3 -8 -11 -15 -17 -15 -8 0
-8 4 1 15 16 19 22 20 -122 -11 -181 -38 -372 -105 -553 -193 -572 -280 -991
-747 -1217 -1356 -33 -89 -101 -345 -94 -353 3 -2 126 28 273 68 147 40 322
87 388 104 105 27 116 32 92 40 -15 6 -27 16 -27 23 0 28 34 82 54 85 27 4 35
52 10 62 -13 5 -29 -6 -58 -38 -46 -49 -77 -61 -139 -53 -52 7 -101 56 -111
110 -10 52 22 120 66 143 31 16 111 24 124 11 3 -3 -3 -26 -15 -51 -14 -32
-26 -46 -40 -46 -25 0 -38 -37 -19 -56 18 -19 42 -10 58 22 33 61 133 83 197
44 81 -49 84 -167 6 -231 -16 -12 -20 -19 -11 -16 9 3 81 23 159 43 79 21 150
45 158 54 9 9 36 46 61 81 65 92 223 245 326 316 429 293 954 339 1427 125
l66 -30 128 35 c70 19 328 88 572 153 244 65 446 122 449 125 3 3 -34 46 -84
96 -381 386 -868 635 -1394 714 -122 18 -450 27 -562 16z m-368 -179 c0 -16
-7 -37 -15 -48 -16 -21 -16 -24 0 49 7 35 15 35 15 -1z m1227 -48 c-9 -9 -28
6 -21 18 4 6 10 6 17 -1 6 -6 8 -13 4 -17z m-1305 -76 c-9 -9 -12 -7 -12 12 0
19 3 21 12 12 9 -9 9 -15 0 -24z m631 -30 c2 -29 3 -56 0 -60 -2 -5 -23 -8
-46 -8 -69 0 -69 -1 -57 -136 5 -65 13 -138 16 -161 l5 -41 -56 -7 c-31 -4
-58 -5 -61 -2 -4 4 -33 280 -34 321 0 5 -26 6 -59 3 l-58 -6 -6 56 c-3 32 -5
59 -3 61 5 4 257 29 312 31 l41 1 6 -52z m257 25 c4 -4 -25 -327 -37 -407 l-6
-38 -55 5 c-30 3 -56 7 -58 9 -3 4 34 389 42 426 5 22 8 23 57 17 29 -4 54 -9
57 -12z m285 -164 l69 -134 27 85 c15 47 30 93 32 102 5 16 9 16 59 2 29 -9
55 -18 56 -19 2 -2 -1 -19 -6 -37 -54 -170 -125 -394 -127 -396 -1 -1 -13 2
-26 7 -18 6 -41 44 -89 140 -35 72 -67 127 -71 123 -3 -4 -19 -49 -34 -100
-26 -84 -30 -92 -49 -86 -62 20 -91 33 -89 40 1 8 118 384 128 411 3 9 12 10
27 4 16 -6 44 -48 93 -142z m-1022 -12 c58 -160 62 -178 47 -234 -23 -80 -125
-144 -203 -128 -41 9 -94 41 -112 69 -19 29 -116 287 -112 299 1 5 25 18 52
28 37 14 51 16 56 7 4 -7 27 -65 49 -130 23 -65 49 -125 57 -133 23 -24 70
-19 89 10 15 24 14 30 -29 147 -61 166 -60 157 -7 178 25 10 50 18 55 19 6 0
32 -59 58 -132z m-383 83 c0 -5 -5 -10 -11 -10 -5 0 -7 5 -4 10 3 6 8 10 11
10 2 0 4 -4 4 -10z m1874 -153 c28 -23 29 -26 27 -105 -1 -45 0 -82 4 -82 3 0
37 16 76 36 l71 35 56 -36 c42 -29 52 -39 41 -46 -8 -6 -75 -41 -149 -79 -133
-68 -136 -70 -178 -135 l-43 -66 -27 17 c-16 9 -38 24 -50 33 l-22 16 45 67
45 67 10 148 c5 81 10 156 10 166 0 16 2 16 28 3 15 -8 40 -26 56 -39z m86
-37 c0 -5 -5 -10 -11 -10 -5 0 -7 5 -4 10 3 6 8 10 11 10 2 0 4 -4 4 -10z
m-2095 -63 c46 -25 85 -92 85 -144 0 -32 4 -35 77 -69 42 -19 79 -36 81 -38 9
-10 -20 -46 -37 -46 -10 0 -24 -7 -31 -15 -17 -21 -39 -19 -104 10 l-57 25
-28 -21 -29 -21 35 -50 c20 -27 34 -50 32 -51 -2 -2 -20 -14 -39 -28 -19 -14
-40 -28 -46 -32 -7 -4 -53 51 -115 139 -57 80 -116 163 -132 184 l-27 39 84
60 c46 34 95 65 107 70 42 17 102 12 144 -12z m-413 -358 c5 -45 4 -47 -28
-62 -67 -33 -81 -117 -27 -171 58 -59 162 -21 180 65 5 26 9 29 49 31 24 0 50
1 57 2 17 1 11 -77 -9 -118 -60 -117 -194 -162 -310 -103 -177 90 -156 347 33
412 44 15 48 12 55 -56z"/>
<path d="M2824 5251 c-18 -11 -35 -24 -38 -30 -8 -12 53 -101 70 -101 21 0 84
66 84 89 0 28 -34 61 -62 61 -13 0 -37 -9 -54 -19z"/>
<path d="M6530 5249 c-223 -60 -709 -191 -1080 -290 -1206 -323 -1331 -356
-1620 -434 -157 -42 -350 -94 -430 -115 -80 -21 -390 -104 -690 -185 -681
-183 -1289 -345 -1755 -470 -386 -103 -425 -114 -425 -121 0 -5 43 -169 135
-509 54 -201 100 -372 270 -1010 43 -159 79 -291 80 -293 2 -2 100 22 219 54
158 42 216 61 216 72 0 11 8 13 31 8 24 -4 221 45 763 190 402 108 907 243
1121 300 463 124 427 113 419 125 -3 6 4 7 18 4 14 -3 228 50 543 134 286 77
682 183 880 236 198 53 484 129 635 170 151 41 505 135 785 210 281 75 539
144 575 155 36 10 98 27 139 37 40 9 76 23 78 31 6 13 -49 229 -69 272 -6 14
-11 30 -10 35 3 21 -47 188 -59 195 -6 4 -8 13 -5 19 4 6 -3 51 -15 100 -18
70 -26 88 -39 84 -11 -4 -12 -3 -2 5 18 12 5 62 -17 63 -10 0 -11 2 -3 6 16 6
15 14 -4 79 -8 30 -21 54 -27 54 -13 0 -66 39 -54 40 4 0 21 -7 36 -15 l29
-14 -30 107 c-16 59 -31 120 -35 135 -3 16 -12 31 -19 34 -8 3 -12 14 -9 27 3
11 -24 131 -60 266 -36 135 -70 262 -76 283 -5 20 -15 37 -22 36 -7 0 -194
-50 -417 -110z m207 -125 c2 -7 -6 -10 -21 -7 -14 3 -23 10 -20 15 8 12 36 6
41 -8z m85 -71 c8 -27 43 -157 78 -290 57 -213 67 -242 82 -237 12 3 18 0 18
-10 0 -9 -7 -16 -16 -16 -10 0 -14 -6 -10 -15 3 -8 24 -87 47 -175 28 -106 47
-160 56 -160 15 0 18 -17 3 -22 -15 -5 20 -129 39 -136 19 -7 46 -32 34 -32
-4 0 -14 -4 -21 -9 -11 -6 -8 -27 13 -107 15 -54 34 -107 43 -116 10 -12 11
-18 3 -18 -7 0 -10 -4 -6 -10 6 -9 0 -11 -200 -64 -97 -26 -119 -35 -117 -49
2 -14 -1 -15 -21 -6 -25 11 -50 5 -1147 -290 -184 -49 -495 -132 -690 -185
-496 -132 -1985 -531 -2340 -627 -162 -43 -442 -118 -622 -166 -179 -48 -324
-92 -321 -97 4 -5 1 -6 -6 -2 -7 4 -133 -25 -282 -64 -149 -40 -272 -71 -273
-69 -2 2 -45 159 -96 349 -50 190 -134 504 -187 699 -52 194 -91 356 -86 360
4 4 283 81 618 170 1047 280 1146 307 1153 317 4 6 23 11 42 11 19 1 600 153
1290 338 690 185 1347 361 1460 391 113 30 225 61 250 68 25 8 243 67 485 131
242 64 494 131 560 149 66 19 128 34 137 35 11 1 21 -13 30 -46z m-1412 -198
c0 -8 -4 -15 -10 -15 -5 0 -10 7 -10 15 0 8 5 15 10 15 6 0 10 -7 10 -15z
m1608 -14 c3 -8 -1 -12 -9 -9 -7 2 -15 10 -17 17 -3 8 1 12 9 9 7 -2 15 -10
17 -17z m-1872 -38 c-8 -8 -36 5 -36 17 0 7 6 7 21 0 11 -7 18 -14 15 -17z
m1934 -243 c0 -5 -5 -10 -11 -10 -5 0 -7 5 -4 10 3 6 8 10 11 10 2 0 4 -4 4
-10z m-50 -91 c0 -5 -9 -9 -20 -9 -22 0 -27 16 -7 23 15 5 27 -1 27 -14z
m-3506 -130 c-6 -11 -24 -2 -24 11 0 5 7 7 15 4 8 -4 12 -10 9 -15z m3643 -5
c-3 -3 -12 -4 -19 -1 -8 3 -5 6 6 6 11 1 17 -2 13 -5z m-3 -79 c4 -12 -3 -15
-29 -15 -33 0 -51 11 -38 24 12 12 61 6 67 -9z m71 -35 c3 -5 1 -10 -4 -10 -6
0 -11 5 -11 10 0 6 2 10 4 10 3 0 8 -4 11 -10z m-3945 -20 c0 -5 -7 -7 -15 -3
-9 3 -25 -3 -35 -12 -21 -19 -28 -7 -8 13 14 14 58 16 58 2z m3837 -36 c-3 -3
-12 -4 -19 -1 -8 3 -5 6 6 6 11 1 17 -2 13 -5z m74 -31 c11 -29 8 -29 -22 3
-21 23 -22 26 -5 23 10 -2 22 -14 27 -26z m34 -93 c-3 -5 -13 -10 -21 -10 -8
0 -12 5 -9 10 3 6 13 10 21 10 8 0 12 -4 9 -10z m-4675 -20 c0 -5 -2 -10 -4
-10 -3 0 -8 5 -11 10 -3 6 -1 10 4 10 6 0 11 -4 11 -10z m4700 -90 c0 -5 -9
-10 -21 -10 -11 0 -17 5 -14 10 3 6 13 10 21 10 8 0 14 -4 14 -10z m-55 -30
c-3 -5 -10 -10 -16 -10 -5 0 -9 5 -9 10 0 6 7 10 16 10 8 0 12 -4 9 -10z
m-5330 -40 c-3 -5 -10 -10 -16 -10 -5 0 -9 5 -9 10 0 6 7 10 16 10 8 0 12 -4
9 -10z m5393 -2 c8 -8 6 -16 -10 -30 -27 -23 -28 -23 -25 12 2 31 15 38 35 18z
m-81 -14 c-3 -3 -12 -4 -19 -1 -8 3 -5 6 6 6 11 1 17 -2 13 -5z m53 -105 c0
-6 -4 -7 -10 -4 -5 3 -10 11 -10 16 0 6 5 7 10 4 6 -3 10 -11 10 -16z m130 0
c0 -5 -9 -9 -20 -9 -22 0 -27 16 -7 23 15 5 27 -1 27 -14z m-66 -38 c4 -5 -3
-7 -14 -4 -23 6 -26 13 -6 13 8 0 17 -4 20 -9z m-6484 -15 c0 -3 -4 -8 -10
-11 -5 -3 -10 -1 -10 4 0 6 5 11 10 11 6 0 10 -2 10 -4z m-260 -66 c0 -5 -5
-10 -11 -10 -5 0 -7 5 -4 10 3 6 8 10 11 10 2 0 4 -4 4 -10z m6548 -6 c12 -8
20 -20 17 -25 -7 -11 -65 17 -65 31 0 15 23 12 48 -6z m282 -9 c7 -8 8 -15 2
-15 -5 0 -15 7 -22 15 -7 8 -8 15 -2 15 5 0 15 -7 22 -15z m-160 -21 c0 -2 -9
-4 -21 -4 -11 0 -18 4 -14 10 5 8 35 3 35 -6z m-57 -21 c-7 -2 -19 -2 -25 0
-7 3 -2 5 12 5 14 0 19 -2 13 -5z m-6573 -101 c0 -21 -2 -24 -10 -12 -13 20
-13 53 0 45 6 -3 10 -18 10 -33z m6195 14 c25 -20 28 -26 16 -40 -15 -17 -41
-22 -41 -7 0 5 -9 13 -20 16 -23 7 -26 25 -8 43 16 16 18 16 53 -12z m110 14
c3 -5 1 -10 -4 -10 -6 0 -11 5 -11 10 0 6 2 10 4 10 3 0 8 -4 11 -10z m245 0
c0 -5 -2 -10 -4 -10 -3 0 -8 5 -11 10 -3 6 -1 10 4 10 6 0 11 -4 11 -10z
m-200 -55 c8 -9 8 -15 2 -15 -18 0 -42 12 -42 21 0 14 26 10 40 -6z m-1380
-219 c0 -2 -7 -9 -15 -16 -13 -11 -14 -10 -9 4 5 14 24 23 24 12z m-70 -91
c-7 -8 -17 -15 -22 -15 -6 0 -5 7 2 15 7 8 17 15 22 15 6 0 5 -7 -2 -15z
m-250 -125 c0 -5 -4 -10 -10 -10 -5 0 -10 5 -10 10 0 6 5 10 10 10 6 0 10 -4
10 -10z m-1730 -375 c-7 -8 -24 -15 -39 -14 -24 0 -23 1 9 13 19 8 37 14 39
15 2 0 -2 -6 -9 -14z m-270 -195 c0 -5 -5 -10 -11 -10 -5 0 -7 5 -4 10 3 6 8
10 11 10 2 0 4 -4 4 -10z m-760 -170 c0 -5 -7 -10 -16 -10 -8 0 -12 5 -9 10 3
6 10 10 16 10 5 0 9 -4 9 -10z m-995 -140 c3 -5 -1 -10 -10 -10 -9 0 -13 5
-10 10 3 6 8 10 10 10 2 0 7 -4 10 -10z m-305 -81 c0 -11 -4 -17 -10 -14 -5 3
-10 15 -10 26 0 11 5 17 10 14 6 -3 10 -15 10 -26z m395 21 c-3 -5 -11 -10
-16 -10 -6 0 -7 5 -4 10 3 6 11 10 16 10 6 0 7 -4 4 -10z m14 -61 c-8 -5 -21
-9 -29 -9 -12 1 -11 4 4 15 10 8 23 12 29 8 5 -3 3 -9 -4 -14z"/>
<path d="M6520 4878 c-19 -5 -59 -16 -87 -24 l-53 -14 -2 -272 -3 -271 -127
214 c-70 118 -133 223 -141 233 -14 19 -16 19 -106 -5 -50 -13 -91 -28 -91
-33 0 -5 97 -160 215 -345 l214 -336 46 -175 c26 -96 50 -179 54 -183 5 -5 47
2 95 14 93 25 94 27 76 89 -6 19 -27 96 -46 170 l-36 135 11 275 c6 151 11
282 11 290 0 8 3 58 6 110 9 134 7 139 -36 128z"/>
<path d="M5661 4649 c-35 -10 -65 -19 -66 -21 -2 -2 34 -145 81 -318 46 -173
83 -318 82 -321 -2 -4 -83 127 -181 291 l-179 297 -106 -28 c-59 -16 -112 -31
-119 -33 -9 -4 -8 -18 3 -58 8 -29 75 -277 148 -551 73 -274 136 -500 139
-503 6 -7 135 22 154 34 9 6 -16 113 -92 397 -57 214 -103 390 -102 392 2 1
28 -39 58 -90 31 -51 118 -194 193 -319 76 -126 143 -228 149 -228 7 0 21 7
31 15 11 8 29 15 40 14 14 0 7 -7 -21 -19 -48 -21 -50 -26 -26 -68 l17 -29 95
25 c53 13 97 25 98 26 1 1 -20 82 -47 181 -26 99 -87 326 -135 505 -119 448
-114 430 -133 429 -9 -1 -46 -10 -81 -20z m78 -233 c15 -8 20 -16 13 -20 -12
-7 -52 13 -52 26 0 11 11 9 39 -6z m-362 -222 c-3 -3 -12 -4 -19 -1 -8 3 -5 6
6 6 11 1 17 -2 13 -5z m573 -314 c0 -5 -4 -10 -10 -10 -5 0 -10 5 -10 10 0 6
5 10 10 10 6 0 10 -4 10 -10z m-100 -110 c0 -13 -20 -13 -40 0 -12 8 -9 10 13
10 15 0 27 -4 27 -10z m80 -110 c0 -5 -7 -7 -15 -4 -8 4 -15 8 -15 10 0 2 7 4
15 4 8 0 15 -4 15 -10z m83 -37 c-7 -2 -21 -2 -30 0 -10 3 -4 5 12 5 17 0 24
-2 18 -5z"/>
<path d="M4861 4435 c-46 -14 -85 -26 -87 -28 -2 -2 59 -237 136 -523 77 -285
143 -534 146 -552 4 -18 9 -34 13 -37 7 -4 180 40 186 47 2 2 -130 498 -280
1056 -10 34 -20 62 -24 61 -3 0 -44 -11 -90 -24z"/>
<path d="M4325 4292 c-154 -42 -282 -77 -284 -79 -2 -1 1 -20 7 -40 6 -21 15
-57 21 -79 l11 -42 95 26 c52 14 97 23 100 20 3 -2 62 -216 131 -474 69 -258
127 -471 130 -473 5 -6 184 43 184 50 0 3 -42 163 -94 355 -52 192 -99 368
-105 392 -7 23 -16 40 -21 37 -6 -4 -10 -1 -10 4 0 6 4 11 9 11 5 0 1 30 -10
67 -10 38 -19 73 -19 79 0 6 39 21 88 34 48 12 91 26 96 30 4 5 3 23 -2 42 -6
18 -16 52 -22 76 -6 23 -14 41 -18 41 -4 -1 -133 -35 -287 -77z m-55 -42 c0
-5 -4 -10 -9 -10 -6 0 -13 5 -16 10 -3 6 1 10 9 10 9 0 16 -4 16 -10z m170
-554 c0 -3 -4 -8 -10 -11 -5 -3 -10 -1 -10 4 0 6 5 11 10 11 6 0 10 -2 10 -4z"/>
<path d="M3795 4149 c-38 -11 -71 -22 -73 -24 -2 -2 42 -171 97 -377 147 -547
143 -531 132 -561 -14 -36 -54 -59 -102 -61 -32 0 -46 5 -63 25 -22 26 -64
169 -222 771 -22 82 -43 148 -49 148 -29 1 -175 -46 -175 -56 0 -18 218 -833
236 -881 12 -32 21 -43 37 -44 20 0 21 -1 3 -8 -18 -7 -16 -11 18 -49 21 -23
42 -40 46 -37 4 3 10 -1 13 -9 9 -22 92 -39 156 -33 121 13 221 70 264 150 17
33 21 58 21 117 0 64 -18 141 -117 507 -64 238 -117 435 -117 438 0 9 -33 4
-105 -16z m-355 -263 c0 -3 -4 -8 -10 -11 -5 -3 -10 -1 -10 4 0 6 5 11 10 11
6 0 10 -2 10 -4z m77 -132 c-3 -3 -12 -4 -19 -1 -8 3 -5 6 6 6 11 1 17 -2 13
-5z m-2 -314 c3 -5 1 -10 -4 -10 -6 0 -11 5 -11 10 0 6 2 10 4 10 3 0 8 -4 11
-10z m205 -270 c0 -5 -5 -10 -11 -10 -5 0 -7 5 -4 10 3 6 8 10 11 10 2 0 4 -4
4 -10z"/>
<path d="M2795 3879 c-82 -21 -162 -42 -177 -45 -16 -4 -28 -11 -28 -16 0 -5
17 -73 39 -151 21 -78 87 -324 146 -547 60 -223 109 -407 111 -408 1 -2 16 -1
33 3 22 5 31 12 31 27 0 11 5 18 13 15 6 -2 11 -10 10 -16 -4 -14 -2 -14 53 0
33 9 44 16 44 31 0 10 -7 21 -16 25 -10 4 -12 8 -5 12 10 6 -2 62 -35 174 -3
9 -15 17 -27 17 -21 1 -21 1 -4 14 18 14 18 18 -6 105 l-24 91 41 12 c23 6 59
11 80 11 68 -1 82 -27 147 -266 17 -65 39 -127 48 -138 14 -17 21 -17 59 -7
31 8 42 15 37 25 -4 13 1 14 30 9 20 -4 45 -4 56 -1 18 6 19 9 6 29 -8 12 -23
47 -33 79 -14 44 -22 57 -38 58 -19 1 -19 2 -3 6 23 6 19 34 -18 148 -34 103
-67 151 -125 177 l-47 22 23 34 c50 73 52 125 12 272 -48 175 -114 241 -243
240 -22 -1 -107 -19 -190 -41z m-58 -91 c-3 -8 -6 -5 -6 6 -1 11 2 17 5 13 3
-3 4 -12 1 -19z m408 -38 c3 -5 -3 -10 -15 -10 -12 0 -18 5 -15 10 3 6 10 10
15 10 5 0 12 -4 15 -10z m-381 -14 c-21 -15 -30 -14 -19 3 3 6 14 11 23 11 13
0 13 -2 -4 -14z m234 -16 c11 -11 31 -53 43 -92 51 -173 39 -211 -80 -243 -45
-12 -51 -11 -55 3 -28 96 -87 324 -84 327 1 1 21 7 43 13 66 17 109 14 133 -8z
m-247 -33 c-10 -9 -11 -8 -5 6 3 10 9 15 12 12 3 -3 0 -11 -7 -18z"/>
<path d="M2140 3717 c-198 -47 -274 -170 -225 -362 50 -192 149 -559 167 -614
30 -93 101 -165 180 -181 135 -27 305 41 356 143 25 50 28 73 10 81 -9 3 -8 8
5 16 9 6 17 18 17 27 0 35 -54 243 -64 243 -5 0 -45 -9 -88 -21 -50 -14 -78
-26 -78 -35 0 -8 9 -47 20 -86 32 -115 27 -159 -21 -183 -60 -32 -126 -13
-147 42 -16 40 -182 667 -182 686 0 33 53 78 97 84 62 8 94 -28 119 -131 16
-70 20 -77 38 -71 12 3 51 13 89 22 46 12 67 22 67 32 0 40 -54 184 -83 223
-63 82 -161 112 -277 85z"/>
<path d="M1379 3514 c-73 -22 -140 -74 -169 -130 -21 -40 -25 -62 -24 -124 3
-173 86 -279 304 -387 145 -72 190 -106 219 -166 36 -75 26 -134 -29 -162 -74
-38 -127 -6 -155 93 l-17 60 -85 -23 c-47 -13 -87 -26 -89 -28 -2 -2 5 -33 16
-69 30 -97 74 -157 140 -191 50 -26 62 -28 130 -24 215 14 328 136 299 322
-23 146 -98 232 -283 326 -152 77 -210 120 -236 176 -26 55 -27 124 -1 147 27
25 78 37 108 25 34 -13 50 -35 64 -86 13 -48 2 -47 124 -14 58 16 60 18 57 46
-6 51 -42 121 -82 160 -22 21 -42 36 -46 33 -3 -4 -14 2 -25 13 -16 16 -33 19
-96 18 -43 0 -99 -7 -124 -15z m256 -164 c3 -5 1 -10 -4 -10 -6 0 -11 5 -11
10 0 6 2 10 4 10 3 0 8 -4 11 -10z m245 -800 c0 -5 -2 -10 -4 -10 -3 0 -8 5
-11 10 -3 6 -1 10 4 10 6 0 11 -4 11 -10z m-340 -46 c0 -8 -4 -12 -10 -9 -5 3
-10 13 -10 21 0 8 5 12 10 9 6 -3 10 -13 10 -21z m-30 -4 c0 -5 -5 -10 -11
-10 -5 0 -7 5 -4 10 3 6 8 10 11 10 2 0 4 -4 4 -10z m-10 -66 c0 -14 -4 -23
-10 -19 -5 3 -10 15 -10 26 0 10 5 19 10 19 6 0 10 -12 10 -26z m51 3 c-1 -4
-1 -14 -1 -23 0 -8 -4 -12 -10 -9 -13 8 -13 48 1 43 6 -2 10 -7 10 -11z"/>
<path d="M3771 4875 c-178 -32 -392 -121 -541 -226 -83 -59 -251 -220 -234
-226 6 -2 168 39 360 90 192 52 514 138 717 192 202 54 364 102 360 106 -9 8
-124 42 -203 59 -87 19 -360 22 -459 5z"/>
<path d="M6876 3264 c-9 -8 -20 -13 -25 -10 -5 4 -72 -10 -148 -29 -196 -50
-203 -53 -203 -78 0 -40 -72 -313 -112 -422 -77 -212 -224 -486 -351 -655
-127 -169 -294 -343 -446 -465 -69 -55 -72 -60 -50 -66 21 -6 19 -7 -10 -8
-25 -1 -64 -21 -145 -75 -287 -193 -622 -322 -1002 -388 -111 -19 -166 -22
-394 -23 -298 0 -395 11 -624 70 -72 19 -151 40 -176 46 -25 6 -61 20 -80 29
-19 10 -46 21 -60 25 -14 4 -48 18 -77 31 -28 13 -57 24 -62 24 -14 0 -14 -23
0 -37 15 -15 20 -81 8 -89 -12 -7 -69 15 -69 27 0 5 9 9 21 9 22 0 22 -2 6 93
-2 11 -39 37 -97 69 -52 27 -145 83 -207 123 -67 44 -125 75 -144 77 -36 3
-50 24 -22 31 17 4 17 4 1 11 -29 13 -117 94 -263 241 l-140 142 -199 -53
c-109 -30 -200 -55 -201 -56 -5 -7 -45 -132 -42 -134 1 -2 103 2 225 8 122 6
225 8 228 5 3 -3 -5 -104 -19 -224 -13 -120 -22 -220 -20 -223 2 -2 99 19 216
48 253 61 249 61 255 43 3 -10 0 -12 -12 -8 -14 5 -15 1 -11 -31 3 -20 12
-118 20 -216 8 -99 17 -181 19 -183 2 -3 95 39 207 91 111 53 204 94 207 92 2
-3 31 -96 63 -208 33 -112 61 -209 64 -216 3 -7 73 38 187 123 100 74 186 131
190 127 5 -5 53 -94 107 -198 54 -104 102 -189 107 -189 5 1 74 73 153 160 79
88 148 161 151 163 4 1 70 -76 146 -172 77 -96 142 -174 146 -173 4 1 59 88
122 192 62 105 116 190 119 190 3 0 82 -65 177 -144 94 -79 173 -141 175 -139
3 2 37 94 76 204 39 109 74 204 78 211 4 7 74 -26 204 -99 109 -60 200 -108
202 -106 2 2 18 102 35 223 18 121 34 222 36 224 1 2 100 -27 218 -65 119 -37
217 -66 219 -63 2 2 -2 103 -8 224 -6 121 -11 221 -11 221 3 6 106 10 106 4 0
-3 55 -12 123 -19 185 -18 227 -20 227 -13 0 4 -25 103 -54 220 -37 145 -50
214 -43 217 7 2 109 11 227 20 118 10 216 19 218 20 1 1 -26 63 -61 136 -101
213 -130 279 -126 282 2 2 98 30 213 64 116 33 212 65 214 71 2 6 -5 8 -17 5
-21 -5 -30 12 -10 19 12 4 -99 167 -113 168 -4 0 -14 -16 -22 -35 -20 -47 -30
-44 -22 5 5 31 3 42 -9 46 -8 3 -12 10 -9 15 3 5 13 5 25 -1 24 -14 24 -2 -1
29 -18 20 -23 22 -52 12 -17 -6 -34 -8 -37 -5 -6 6 22 30 43 37 6 2 1 15 -12
32 -12 15 -22 31 -22 35 0 4 90 54 200 110 l201 104 -43 43 c-45 46 -76 54
-102 27z m-116 -564 c0 -5 -2 -10 -4 -10 -3 0 -8 5 -11 10 -3 6 -1 10 4 10 6
0 11 -4 11 -10z m-110 -54 c0 -3 -4 -8 -10 -11 -5 -3 -10 -1 -10 4 0 6 5 11
10 11 6 0 10 -2 10 -4z m-366 -311 c3 -8 2 -15 -3 -15 -5 0 -14 7 -21 15 -10
12 -10 15 3 15 8 0 17 -7 21 -15z m32 -50 c15 -16 18 -25 10 -25 -8 0 -21 11
-30 25 -9 14 -13 25 -10 25 4 0 17 -11 30 -25z m-20 -100 c1 -8 -1 -15 -5 -15
-14 0 -20 12 -14 26 6 17 16 11 19 -11z m-169 -471 c-3 -3 -12 -4 -19 -1 -8 3
-5 6 6 6 11 1 17 -2 13 -5z m-4012 -24 c3 -5 -1 -10 -9 -10 -9 0 -16 5 -16 10
0 6 4 10 9 10 6 0 13 -4 16 -10z m3745 -20 c0 -5 -7 -10 -15 -10 -8 0 -15 5
-15 10 0 6 7 10 15 10 8 0 15 -4 15 -10z m-177 -157 c-7 -2 -19 -2 -25 0 -7 3
-2 5 12 5 14 0 19 -2 13 -5z m-238 -93 c7 -12 -2 -12 -30 0 -19 8 -19 9 2 9
12 1 25 -3 28 -9z m-275 -160 c0 -5 -2 -10 -4 -10 -3 0 -8 5 -11 10 -3 6 -1
10 4 10 6 0 11 -4 11 -10z m45 -28 c0 -18 -20 -15 -23 4 -3 10 1 15 10 12 7
-3 13 -10 13 -16z m605 -2 c0 -5 -4 -10 -10 -10 -5 0 -10 5 -10 10 0 6 5 10
10 10 6 0 10 -4 10 -10z m-2870 -121 c0 -6 -4 -7 -10 -4 -5 3 -10 11 -10 16 0
6 5 7 10 4 6 -3 10 -11 10 -16z m50 -3 c0 -2 -7 -7 -16 -10 -8 -3 -12 -2 -9 4
6 10 25 14 25 6z m2048 -8 c18 -18 14 -38 -8 -38 -22 0 -27 15 -7 23 7 3 4 6
-6 6 -10 1 -15 6 -12 11 8 13 18 13 33 -2z m-2065 -75 c-7 -2 -19 -2 -25 0 -7
3 -2 5 12 5 14 0 19 -2 13 -5z m157 -137 c0 -3 -4 -8 -10 -11 -5 -3 -10 -1
-10 4 0 6 5 11 10 11 6 0 10 -2 10 -4z m-115 -126 c3 -5 -1 -10 -10 -10 -9 0
-13 5 -10 10 3 6 8 10 10 10 2 0 7 -4 10 -10z m1755 -85 c10 -12 10 -15 -4
-15 -9 0 -16 7 -16 15 0 8 2 15 4 15 2 0 9 -7 16 -15z"/>
<path d="M5875 3004 c-253 -68 -507 -136 -564 -151 -57 -14 -110 -33 -117 -42
-7 -9 -40 -52 -73 -97 -232 -312 -613 -519 -1021 -553 -243 -21 -520 29 -722
130 l-56 29 -578 -155 c-317 -85 -579 -157 -582 -160 -7 -7 142 -158 243 -244
738 -633 1760 -768 2635 -348 144 69 269 147 263 163 -4 10 0 12 11 8 43 -17
348 245 511 436 245 289 423 637 511 995 28 116 28 115 12 114 -7 0 -220 -57
-473 -125z m425 -34 c0 -5 -7 -10 -15 -10 -8 0 -15 5 -15 10 0 6 7 10 15 10 8
0 15 -4 15 -10z m-740 -99 c0 -13 141 -265 152 -272 6 -4 19 -4 31 -1 15 4 19
1 15 -10 -4 -10 6 -22 33 -37 21 -12 41 -26 44 -30 5 -9 -42 -101 -52 -101 -2
0 -35 18 -72 40 l-68 41 -166 6 c-122 4 -167 10 -171 19 -3 7 0 11 7 8 7 -2
25 19 41 47 l29 52 83 -6 c46 -3 84 -3 84 0 0 4 -18 38 -39 78 l-39 71 35 57
c30 49 53 66 53 38z m-150 -45 c0 -8 3 -23 6 -33 5 -16 4 -16 -10 1 -18 22
-21 46 -6 46 6 0 10 -6 10 -14z m820 -91 c0 -8 -7 -15 -15 -15 -16 0 -20 12
-8 23 11 12 23 8 23 -8z m-175 -25 c4 -6 -8 -10 -28 -10 -22 0 -37 -6 -41 -15
-3 -9 -17 -15 -33 -14 -16 0 -22 3 -13 6 8 3 26 14 39 24 26 21 66 25 76 9z
m-461 -551 c-15 -17 -33 -19 -168 -19 l-150 0 74 -75 75 -75 -43 -43 -42 -42
-155 160 c-85 88 -154 165 -154 172 -2 29 41 35 181 29 76 -3 138 -3 138 2 0
4 -31 39 -70 77 l-70 69 43 44 42 43 158 -161 c152 -156 158 -163 141 -181z
m416 301 c0 -5 -4 -10 -10 -10 -5 0 -10 5 -10 10 0 6 5 10 10 10 6 0 10 -4 10
-10z m-410 -55 c-13 -14 -27 -22 -32 -19 -5 4 3 19 19 36 15 16 29 24 31 18 2
-6 -6 -22 -18 -35z m440 -56 c0 -6 -4 -7 -10 -4 -5 3 -10 11 -10 16 0 6 5 7
10 4 6 -3 10 -11 10 -16z m-2963 -125 c-3 -3 -12 -4 -19 -1 -8 3 -5 6 6 6 11
1 17 -2 13 -5z m1403 -34 c0 -5 -7 -10 -16 -10 -8 0 -12 5 -9 10 3 6 10 10 16
10 5 0 9 -4 9 -10z m730 -365 c0 -5 -87 -65 -94 -65 -6 0 -234 344 -243 365
-3 9 13 25 43 45 l48 30 123 -186 c68 -102 123 -187 123 -189z m508 325 c-13
-21 -48 -28 -48 -10 0 6 7 10 15 10 8 0 15 5 15 10 0 6 7 10 15 10 13 0 13 -3
3 -20z m-2613 -34 c21 -16 39 -42 46 -65 12 -41 5 -111 -12 -111 -23 0 -88 51
-91 72 -2 17 -10 23 -28 23 -37 0 -37 -31 -2 -69 55 -56 66 -118 32 -174 -58
-95 -198 -94 -244 2 -19 41 -21 96 -3 119 11 16 15 15 52 -7 22 -14 42 -35 45
-48 4 -16 13 -23 30 -23 39 0 37 32 -5 75 -123 126 41 312 180 206z m348 17
c-7 -2 -19 -2 -25 0 -7 3 -2 5 12 5 14 0 19 -2 13 -5z m1385 -88 c12 -25 22
-49 22 -53 0 -4 -22 -16 -50 -27 -60 -23 -60 -18 16 -194 30 -68 54 -128 54
-133 0 -8 -82 -48 -98 -48 -4 0 -36 66 -71 148 -36 81 -66 149 -68 151 -2 3
-24 -5 -48 -17 -25 -12 -49 -22 -54 -22 -9 0 -56 98 -50 104 8 8 304 135 315
136 5 0 20 -20 32 -45z m736 30 c-4 -8 -10 -15 -15 -15 -4 0 -6 7 -3 15 4 8
10 15 15 15 4 0 6 -7 3 -15z m-2936 -57 c-3 -7 -13 -13 -23 -13 -10 0 -20 6
-22 13 -3 7 5 12 22 12 17 0 25 -5 23 -12z m722 -18 c12 -8 13 -12 1 -19 -8
-5 8 -10 47 -13 67 -5 125 -36 161 -87 l22 -30 -50 -26 -50 -25 -37 25 c-111
76 -233 -49 -145 -147 26 -29 36 -33 79 -33 49 0 51 -1 71 -42 11 -24 28 -43
36 -43 31 0 13 -16 -30 -28 -92 -24 -165 -10 -227 46 -48 43 -77 102 -78 153
0 20 -7 42 -15 49 -8 7 -15 17 -15 22 0 6 6 5 14 -1 12 -10 19 -4 37 36 13 26
25 51 27 56 2 4 -5 7 -16 7 -11 0 -25 7 -32 15 -11 13 -5 15 41 15 72 0 90 12
55 35 -20 13 -24 20 -15 26 7 4 22 3 32 -3 15 -7 23 -6 35 6 19 18 31 20 52 6z
m430 0 c0 -5 -5 -10 -11 -10 -5 0 -7 5 -4 10 3 6 8 10 11 10 2 0 4 -4 4 -10z
m1740 -50 c0 -5 -4 -10 -10 -10 -5 0 -10 5 -10 10 0 6 5 10 10 10 6 0 10 -4
10 -10z m-1088 -22 c17 -45 50 -298 44 -331 -8 -45 -53 -99 -100 -121 -90 -42
-206 5 -240 99 -7 18 -56 279 -56 297 0 3 19 9 43 13 23 3 49 8 58 11 13 3 20
-19 39 -128 26 -153 35 -176 67 -184 31 -8 73 20 73 49 0 12 -11 82 -24 154
l-23 133 36 6 c20 3 41 7 46 9 21 7 33 5 37 -7z m-1956 -11 c4 -4 -14 -7 -39
-7 -26 0 -47 4 -47 9 0 10 76 9 86 -2z m3044 -1 c0 -3 -4 -8 -10 -11 -5 -3
-10 -1 -10 4 0 6 5 11 10 11 6 0 10 -2 10 -4z m-1645 -37 c101 -26 151 -128
110 -226 -8 -20 -22 -41 -31 -47 -13 -10 -10 -22 25 -96 22 -47 38 -86 36 -89
-2 -2 -33 0 -68 3 l-64 7 -28 60 c-27 56 -30 59 -66 59 l-37 0 -7 -56 -7 -57
-55 6 c-30 3 -56 7 -57 9 -2 2 4 103 12 226 l15 223 91 -6 c50 -3 109 -11 131
-16z m1657 -41 c-9 -9 -7 -14 6 -24 15 -12 15 -13 1 -14 -16 0 -29 19 -29 41
0 5 8 9 17 9 13 0 14 -3 5 -12z m-69 -53 c-14 -10 -23 -28 -25 -52 -4 -46 -28
-58 -28 -14 0 20 -7 34 -20 41 -11 6 -20 16 -19 23 0 9 2 9 6 0 6 -17 33 -16
57 2 11 8 27 15 35 15 11 0 9 -4 -6 -15z m-2360 -85 c20 -24 6 -27 -17 -4 -18
17 -20 24 -8 24 4 0 15 -9 25 -20z m957 0 c0 -5 -2 -10 -4 -10 -3 0 -8 5 -11
10 -3 6 -1 10 4 10 6 0 11 -4 11 -10z m-800 -170 c0 -5 -4 -10 -10 -10 -5 0
-10 5 -10 10 0 6 5 10 10 10 6 0 10 -4 10 -10z m280 -4 c0 -3 -4 -8 -10 -11
-5 -3 -10 -1 -10 4 0 6 5 11 10 11 6 0 10 -2 10 -4z m-19 -69 c-1 -12 -15 -9
-19 4 -3 6 1 10 8 8 6 -3 11 -8 11 -12z m31 -109 l23 -3 -22 -13 c-12 -6 -28
-9 -36 -6 -19 7 -38 50 -30 69 4 13 9 10 24 -14 10 -16 28 -31 41 -33z m63 2
c3 -5 -1 -10 -9 -10 -9 0 -16 5 -16 10 0 6 4 10 9 10 6 0 13 -4 16 -10z m557
-82 c-17 -8 -26 -8 -34 0 -9 9 -4 12 23 11 32 0 33 -1 11 -11z"/>
<path d="M3782 1779 c0 -8 -4 -38 -8 -66 l-7 -53 55 0 c40 0 59 5 71 18 23 25
21 65 -3 87 -25 22 -106 33 -108 14z"/>
<path d="M4242 2567 l-713 -192 38 -16 c85 -35 268 -68 384 -69 59 0 67 3 77
23 l11 22 0 -24 c1 -23 2 -24 69 -17 297 30 563 153 779 360 90 86 106 107 81
105 -7 0 -334 -87 -726 -192z m-215 -209 c-3 -8 -6 -5 -6 6 -1 11 2 17 5 13 3
-3 4 -12 1 -19z m130 -14 c-3 -3 -12 -4 -19 -1 -8 3 -5 6 6 6 11 1 17 -2 13
-5z m-177 -29 c0 -8 -2 -15 -4 -15 -2 0 -6 7 -10 15 -3 8 -1 15 4 15 6 0 10
-7 10 -15z"/>
</g>
</svg>
