<svg height="480pt" viewBox="0 -20 480 480" width="480pt" xmlns="http://www.w3.org/2000/svg"><path d="m64 235.199219 59.199219-59.199219h140.800781c13.601562 0 24-10.398438 24-24v-128c0-13.601562-10.398438-24-24-24h-240c-13.601562 0-24 10.398438-24 24v128c0 13.601562 10.398438 24 24 24h40zm-40-75.199219c-4.800781 0-8-3.199219-8-8v-128c0-4.800781 3.199219-8 8-8h240c4.800781 0 8 3.199219 8 8v128c0 4.800781-3.199219 8-8 8h-147.199219l-36.800781 36.800781v-36.800781zm0 0"/><path d="m112 48h144v16h-144zm0 0"/><path d="m112 80h144v16h-144zm0 0"/><path d="m112 112h104v16h-104zm0 0"/><path d="m304 104h64v16h-64zm0 0"/><path d="m304 136h64v16h-64zm0 0"/><path d="m320 168h48v16h-48zm0 0"/><path d="m456 56h-152v16h152c4.800781 0 8 3.199219 8 8v128c0 4.800781-3.199219 8-8 8h-56v36.800781l-36.800781-36.800781h-147.199219c-4.800781 0-8-3.199219-8-8v-16h-16v16c0 13.601562 10.398438 24 24 24h140.800781l59.199219 59.199219v-59.199219h40c13.601562 0 24-10.398438 24-24v-128c0-13.601562-10.398438-24-24-24zm0 0"/><path d="m440 112c0-13.601562-10.398438-24-24-24s-24 10.398438-24 24 10.398438 24 24 24 24-10.398438 24-24zm-32 0c0-4.800781 3.199219-8 8-8s8 3.199219 8 8-3.199219 8-8 8-8-3.199219-8-8zm0 0"/><path d="m112 256c-4.800781 0-8-3.199219-8-8v-16h-16v16c0 13.601562 10.398438 24 24 24h40v59.199219l59.199219-59.199219h148.800781v-16h-155.199219l-36.800781 36.800781v-36.800781zm0 0"/><path d="m440 356h-35.199219l-13.601562-31.199219c-1.597657-4-6.398438-5.601562-10.398438-4-1.601562.800781-3.199219 2.398438-4 4l-13.601562 31.199219h-35.199219c-4.800781 0-8 3.199219-8 8 0 2.398438.800781 4.800781 2.398438 6.398438l28 24.800781-10.398438 35.199219c-1.601562 4 .800781 8.800781 5.601562 9.601562 2.398438.800781 4 0 6.398438-.800781l32-17.597657 32 17.597657c4 2.402343 8.800781.800781 11.199219-3.199219.800781-1.601562 1.601562-4 .800781-6.398438l-10.398438-35.203124 28-24.796876c3.199219-3.203124 4-8 .796876-11.203124-1.597657-1.597657-4-2.398438-6.398438-2.398438zm-37.601562 29.601562c-2.398438 2.398438-3.199219 5.597657-2.398438 8l6.398438 20.796876-18.398438-10.398438c-2.398438-1.601562-5.601562-1.601562-8 0l-18.398438 10.398438 6.398438-20.796876c.800781-3.203124 0-6.402343-2.398438-8l-16-13.601562h18.398438c3.199219 0 6.398438-1.601562 7.199219-4.800781l8.800781-19.199219 8.800781 19.199219c1.597657 3.199219 4 4.800781 7.199219 4.800781h18.398438zm0 0"/><path d="m152 356h-35.199219l-13.601562-31.199219c-1.597657-4-6.398438-5.601562-10.398438-4-1.601562.800781-3.199219 2.398438-4 4l-13.601562 31.199219h-35.199219c-4.800781 0-8 3.199219-8 8 0 2.398438.800781 4.800781 2.398438 6.398438l28 24.800781-10.398438 35.199219c-1.601562 4 .800781 8.800781 5.601562 9.601562 2.398438.800781 4 0 6.398438-.800781l32-17.597657 32 17.597657c4 2.402343 8.800781.800781 11.199219-3.199219.800781-1.601562 1.601562-4 .800781-6.398438l-10.398438-35.203124 28-24.796876c3.199219-3.203124 4-8 .796876-11.203124-1.597657-1.597657-4-2.398438-6.398438-2.398438zm-37.601562 29.601562c-2.398438 2.398438-3.199219 5.597657-2.398438 8l6.398438 20.796876-18.398438-10.398438c-2.398438-1.601562-5.601562-1.601562-8 0l-18.398438 10.398438 6.398438-20.796876c.800781-3.203124 0-6.402343-2.398438-8l-16-13.601562h18.398438c3.199219 0 6.398438-1.601562 7.199219-4.800781l8.800781-19.199219 8.800781 19.199219c1.597657 3.199219 4 4.800781 7.199219 4.800781h18.398438zm0 0"/><path d="m296 356h-35.199219l-13.601562-31.199219c-1.597657-4-6.398438-5.601562-10.398438-4-1.601562.800781-3.199219 2.398438-4 4l-13.601562 31.199219h-35.199219c-4.800781 0-8 3.199219-8 8 0 2.398438.800781 4.800781 2.398438 6.398438l28 24.800781-10.398438 35.199219c-1.601562 4 .800781 8.800781 5.601562 9.601562 2.398438.800781 4 0 6.398438-.800781l32-17.597657 32 17.597657c4 2.402343 8.800781.800781 11.199219-3.199219.800781-1.601562 1.601562-4 .800781-6.398438l-10.398438-35.203124 28-24.796876c3.199219-3.203124 4-8 .796876-11.203124-1.597657-1.597657-4-2.398438-6.398438-2.398438zm-37.601562 29.601562c-2.398438 2.398438-3.199219 5.597657-2.398438 8l6.398438 20.796876-18.398438-10.398438c-2.398438-1.601562-5.601562-1.601562-8 0l-18.398438 10.398438 6.398438-20.796876c.800781-3.203124 0-6.402343-2.398438-8l-16-13.601562h18.398438c3.199219 0 6.398438-1.601562 7.199219-4.800781l8.800781-19.199219 8.800781 19.199219c1.597657 3.199219 4 4.800781 7.199219 4.800781h18.398438zm0 0"/><path d="m384 176v24h64v-24c0-13.601562-10.398438-24-24-24h-16c-13.601562 0-24 10.398438-24 24zm16 0c0-4.800781 3.199219-8 8-8h16c4.800781 0 8 3.199219 8 8v8h-32zm0 0"/><path d="m64 80c13.601562 0 24-10.398438 24-24s-10.398438-24-24-24-24 10.398438-24 24 10.398438 24 24 24zm0-32c4.800781 0 8 3.199219 8 8s-3.199219 8-8 8-8-3.199219-8-8 3.199219-8 8-8zm0 0"/><path d="m96 120c0-13.601562-10.398438-24-24-24h-16c-13.601562 0-24 10.398438-24 24v24h64zm-16 8h-32v-8c0-4.800781 3.199219-8 8-8h16c4.800781 0 8 3.199219 8 8zm0 0"/></svg>